<svg width="48" height="48" viewBox="0 0 48 48" xmlns="http://www.w3.org/2000/svg">
  <!-- DNA Helix Background -->
  <circle cx="24" cy="24" r="22" fill="#1a1a2e" stroke="#16213e" stroke-width="2"/>
  
  <!-- Musical DNA Helix -->
  <g stroke="#00f5ff" stroke-width="2" fill="none">
    <!-- Left strand -->
    <path d="M12 8 Q18 16 12 24 Q18 32 12 40" stroke="#ff0080"/>
    <!-- Right strand -->
    <path d="M36 8 Q30 16 36 24 Q30 32 36 40" stroke="#00f5ff"/>
    
    <!-- Cross connections (DNA bonds) -->
    <line x1="15" y1="12" x2="33" y2="12" stroke="#ffd700" stroke-width="1"/>
    <line x1="18" y1="20" x2="30" y2="20" stroke="#ffd700" stroke-width="1"/>
    <line x1="15" y1="28" x2="33" y2="28" stroke="#ffd700" stroke-width="1"/>
    <line x1="18" y1="36" x2="30" y2="36" stroke="#ffd700" stroke-width="1"/>
  </g>
  
  <!-- Musical Notes -->
  <g fill="#ffd700">
    <!-- Treble clef symbol -->
    <path d="M20 14 Q22 12 24 14 Q26 16 24 18 Q22 20 20 18 Q18 16 20 14"/>
    <!-- Notes -->
    <circle cx="28" cy="22" r="1.5"/>
    <circle cx="20" cy="30" r="1.5"/>
    <circle cx="28" cy="34" r="1.5"/>
  </g>
  
  <!-- Center symbol -->
  <circle cx="24" cy="24" r="3" fill="#ff0080" opacity="0.8"/>
  <text x="24" y="27" text-anchor="middle" fill="white" font-size="8" font-family="monospace">🧬</text>
</svg>