<svg width="64" height="64" viewBox="0 0 64 64" xmlns="http://www.w3.org/2000/svg">
  <defs>
    <linearGradient id="studioGrad" x1="0%" y1="0%" x2="100%" y2="100%">
      <stop offset="0%" style="stop-color:#ff6b6b;stop-opacity:1" />
      <stop offset="50%" style="stop-color:#4ecdc4;stop-opacity:1" />
      <stop offset="100%" style="stop-color:#45b7d1;stop-opacity:1" />
    </linearGradient>
    <linearGradient id="zkGrad" x1="0%" y1="0%" x2="100%" y2="100%">
      <stop offset="0%" style="stop-color:#ffd93d;stop-opacity:1" />
      <stop offset="100%" style="stop-color:#ff9f40;stop-opacity:1" />
    </linearGradient>
  </defs>
  
  <!-- Main Studio Console -->
  <rect x="8" y="20" width="48" height="32" rx="4" fill="url(#studioGrad)" stroke="#2c3e50" stroke-width="2"/>
  
  <!-- Mixer Channels -->
  <rect x="12" y="24" width="3" height="20" rx="1" fill="#34495e"/>
  <rect x="17" y="26" width="3" height="18" rx="1" fill="#34495e"/>
  <rect x="22" y="22" width="3" height="22" rx="1" fill="#34495e"/>
  <rect x="27" y="28" width="3" height="16" rx="1" fill="#34495e"/>
  <rect x="32" y="25" width="3" height="19" rx="1" fill="#34495e"/>
  <rect x="37" y="27" width="3" height="17" rx="1" fill="#34495e"/>
  <rect x="42" y="23" width="3" height="21" rx="1" fill="#34495e"/>
  <rect x="47" y="29" width="3" height="15" rx="1" fill="#34495e"/>
  
  <!-- ZK Shield -->
  <path d="M32 4 L26 8 L26 16 L32 20 L38 16 L38 8 Z" fill="url(#zkGrad)" stroke="#e67e22" stroke-width="1.5"/>
  
  <!-- ZK Text -->
  <text x="32" y="13" font-family="Arial, sans-serif" font-size="6" font-weight="bold" text-anchor="middle" fill="#2c3e50">ZK</text>
  
  <!-- Waveform -->
  <path d="M10 56 Q15 52 20 56 T30 56 T40 52 T50 56 T60 56" stroke="#e74c3c" stroke-width="2" fill="none" opacity="0.8"/>
  
  <!-- Control Knobs -->
  <circle cx="14" cy="47" r="2" fill="#ecf0f1" stroke="#95a5a6"/>
  <circle cx="20" cy="47" r="2" fill="#ecf0f1" stroke="#95a5a6"/>
  <circle cx="26" cy="47" r="2" fill="#ecf0f1" stroke="#95a5a6"/>
  
  <!-- Power LED -->
  <circle cx="50" cy="26" r="1.5" fill="#2ecc71"/>
</svg>