<svg width="160" height="160" viewBox="0 0 160 160" fill="none" xmlns="http://www.w3.org/2000/svg">
<circle cx="80" cy="80" r="76.875" fill="#28276E" stroke="white" stroke-width="3.75"/>
<path d="M42.568 43.7148C32.679 53.6268 27.124 67.0575 27.124 81.0609C27.124 95.0842 32.695 108.533 42.611 118.449C52.527 128.365 65.976 133.936 79.999 133.936C94.022 133.936 107.471 128.365 117.387 118.449L93.522 94.5843C79.463 108.643 56.669 108.643 42.611 94.5843C28.566 80.5395 28.552 57.7771 42.568 43.7148Z" fill="url(#paint0_linear)"/>
<path d="M93.523 94.5836L93.459 94.5199C89.89 98.0897 85.048 100.095 80 100.095C74.951 100.095 70.11 98.0897 66.54 94.5199C62.97 90.9502 60.965 86.1085 60.965 81.0601C60.965 76.0117 62.97 71.1701 66.54 67.6004L42.611 43.6719C42.597 43.6859 42.583 43.7 42.569 43.7141C28.552 57.7763 28.567 80.5387 42.611 94.5836C56.67 108.642 79.464 108.642 93.523 94.5836Z" fill="url(#paint1_linear)"/>
<path d="M117.389 118.451C127.305 108.535 132.875 95.0858 132.875 81.0625C132.875 67.0392 127.305 53.5902 117.389 43.6742C107.473 33.7582 94.024 28.1875 80 28.1875C65.977 28.1875 52.528 33.7582 42.612 43.6742L66.477 67.5391C80.536 53.4802 103.33 53.4802 117.389 67.5391C131.448 81.598 131.448 104.392 117.389 118.451Z" fill="url(#paint2_linear)"/>
<path d="M66.477 67.5383C80.536 53.4794 103.33 53.4794 117.389 67.5383C131.448 81.5972 131.448 104.391 117.389 118.45L93.461 94.5215C97.03 90.9517 99.036 86.1101 99.036 81.0617C99.036 76.0133 97.03 71.1717 93.461 67.6019C89.891 64.0322 85.049 62.0267 80.001 62.0267C74.952 62.0267 70.111 64.0322 66.541 67.6019L66.477 67.5383Z" fill="url(#paint3_linear)"/>
<path opacity="0.5" d="M66.54 67.6004L42.611 43.6719C37.798 48.4848 34.009 54.13 31.384 60.2693C32.296 64.7972 34.524 68.9951 37.838 72.3096C42.269 76.7401 48.278 79.2292 54.544 79.2292C56.806 79.2292 59.035 78.9046 61.168 78.2814C61.762 74.2608 63.632 70.5085 66.54 67.6004Z" fill="#28276E"/>
<circle cx="54.543" cy="55.6045" r="16.875" transform="rotate(-45 54.543 55.6045)" fill="#EC5631"/>
<path opacity="0.5" d="M93.46 94.5214L117.388 118.45C122.201 113.637 125.99 107.993 128.615 101.854C127.704 97.325 125.475 93.1262 122.16 89.8112C117.73 85.3807 111.721 82.8916 105.455 82.8916C103.193 82.8916 100.964 83.216 98.831 83.8391C98.238 87.8601 96.368 91.6129 93.46 94.5214Z" fill="#28276E"/>
<circle cx="105.455" cy="106.517" r="16.875" transform="rotate(135 105.455 106.517)" fill="white"/>
<defs>
<linearGradient id="paint0_linear" x1="99.091" y1="106.517" x2="32.667" y2="108.505" gradientUnits="userSpaceOnUse">
<stop stop-color="white"/>
<stop offset="1" stop-color="#28276E"/>
</linearGradient>
<linearGradient id="paint1_linear" x1="96.705" y1="91.4016" x2="46.589" y2="39.6944" gradientUnits="userSpaceOnUse">
<stop stop-color="white"/>
<stop offset="1" stop-color="#28276E"/>
</linearGradient>
<linearGradient id="paint2_linear" x1="38.237" y1="54.4136" x2="127.332" y2="53.618" gradientUnits="userSpaceOnUse">
<stop stop-color="#EC5631"/>
<stop offset="1" stop-color="#28276E"/>
</linearGradient>
<linearGradient id="paint3_linear" x1="124.946" y1="110.893" x2="74.035" y2="59.9812" gradientUnits="userSpaceOnUse">
<stop stop-color="#EC5631"/>
<stop offset="1" stop-color="#28276E"/>
</linearGradient>
</defs>
</svg>