<svg width="402" height="240" viewBox="0 0 402 240" fill="none" xmlns="http://www.w3.org/2000/svg">
<circle cx="200.799" cy="79" r="76.875" fill="#28276E" stroke="white" stroke-width="3.75"/>
<path d="M163.368 42.7148C153.479 52.6268 147.924 66.0575 147.924 80.0609C147.924 94.0842 153.495 107.533 163.411 117.449C173.327 127.365 186.776 132.936 200.799 132.936C214.822 132.936 228.271 127.365 238.187 117.449L214.322 93.5843C200.263 107.643 177.469 107.643 163.411 93.5843C149.366 79.5395 149.352 56.7771 163.368 42.7148Z" fill="url(#paint0_linear_1278_34731)"/>
<path d="M214.323 93.5836L214.259 93.5199C210.69 97.0897 205.848 99.0951 200.8 99.0951C195.751 99.0951 190.91 97.0897 187.34 93.5199C183.77 89.9502 181.765 85.1085 181.765 80.0601C181.765 75.0117 183.77 70.1701 187.34 66.6004L163.411 42.6719C163.397 42.6859 163.383 42.7 163.369 42.7141C149.352 56.7763 149.367 79.5387 163.411 93.5836C177.47 107.642 200.264 107.642 214.323 93.5836Z" fill="url(#paint1_linear_1278_34731)"/>
<path d="M238.189 117.451C248.105 107.535 253.675 94.0858 253.675 80.0625C253.675 66.0392 248.105 52.5902 238.189 42.6742C228.273 32.7582 214.824 27.1875 200.8 27.1875C186.777 27.1875 173.328 32.7582 163.412 42.6742L187.277 66.5391C201.336 52.4802 224.13 52.4802 238.189 66.5391C252.248 80.598 252.248 103.392 238.189 117.451Z" fill="url(#paint2_linear_1278_34731)"/>
<path d="M187.277 66.5383C201.336 52.4794 224.13 52.4794 238.189 66.5383C252.248 80.5972 252.248 103.391 238.189 117.45L214.261 93.5215C217.83 89.9517 219.836 85.1101 219.836 80.0617C219.836 75.0133 217.83 70.1717 214.261 66.6019C210.691 63.0322 205.849 61.0267 200.801 61.0267C195.752 61.0267 190.911 63.0322 187.341 66.6019L187.277 66.5383Z" fill="url(#paint3_linear_1278_34731)"/>
<path opacity="0.5" d="M187.34 66.6004L163.411 42.6719C158.598 47.4848 154.809 53.13 152.184 59.2693C153.096 63.7972 155.324 67.9951 158.638 71.3096C163.069 75.7401 169.078 78.2292 175.344 78.2292C177.606 78.2292 179.835 77.9046 181.968 77.2814C182.562 73.2608 184.432 69.5085 187.34 66.6004Z" fill="#28276E"/>
<circle cx="175.343" cy="54.6045" r="16.875" transform="rotate(-45 175.343 54.6045)" fill="#EC5631"/>
<path opacity="0.5" d="M214.26 93.5214L238.188 117.45C243.001 112.637 246.79 106.993 249.415 100.854C248.504 96.325 246.275 92.1262 242.96 88.8112C238.53 84.3807 232.521 81.8916 226.255 81.8916C223.993 81.8916 221.764 82.216 219.631 82.8391C219.038 86.8601 217.168 90.6129 214.26 93.5214Z" fill="#28276E"/>
<circle cx="226.255" cy="105.517" r="16.875" transform="rotate(135 226.255 105.517)" fill="white"/>
<path d="M8.59446 223.333H0C0.193569 230.457 5.11022 239.051 19.8215 239.051C31.784 239.051 40.1849 233.205 40.1849 222.83C40.1849 213.848 34.1456 210.093 26.2092 208.157L17.5761 206.028C12.6594 204.905 10.2592 202.428 10.2592 198.982C10.2592 194.066 14.3628 191.201 20.4022 191.201C27.2545 191.201 30.7 194.917 31.0872 199.408H39.5268C39.3332 189.536 30.7775 184 20.5183 184C10.2592 184 1.43241 189.536 1.43241 199.64C1.43241 208.235 7.54919 212.3 14.3628 213.887L23.0347 216.055C28.6869 217.41 31.3969 219.578 31.3969 223.604C31.3969 228.598 27.3319 231.812 20.4796 231.812C13.0078 231.812 8.9816 227.901 8.59446 223.333Z" fill="white"/>
<path d="M51.9353 197.085V187.136H60.3749V197.085H68.35V203.976H60.3749V225.811C60.3749 230.263 62.0396 231.502 66.6466 231.502C67.3821 231.502 68.079 231.502 68.5823 231.424V238.006C67.8854 238.122 66.2594 238.277 64.5173 238.277C54.5679 238.277 51.8192 234.715 51.8192 226.508V203.976H46.167V197.085H51.9353Z" fill="white"/>
<path fill-rule="evenodd" clip-rule="evenodd" d="M171.214 215.823C171.214 204.673 164.826 196.388 153.057 196.388C141.288 196.388 134.823 204.712 134.823 215.823V219.113C134.823 230.65 141.25 238.703 153.057 238.703C164.865 238.703 171.214 230.65 171.214 219.113V215.823ZM143.495 215.939C143.495 208.506 146.669 203.279 153.057 203.279C159.445 203.279 162.581 208.467 162.581 215.939V219.075C162.581 226.43 159.484 231.773 153.057 231.773C146.631 231.773 143.495 226.392 143.495 219.075V215.939Z" fill="white"/>
<path d="M120.13 238.006L130.738 197.085H122.105L115.369 228.289H115.02L106.581 197.085H98.4507L90.0498 228.289H89.6627L82.9265 197.085H74.2546L84.8234 238.006H93.8438L102.361 207.809H102.632L111.149 238.006H120.13Z" fill="white"/>
<path d="M383.767 238.006V197.743H387.91V204.286H388.065C389.265 200.879 392.246 197.124 398.904 197.124C399.936 197.124 400.726 197.231 401.319 197.312L401.321 197.312L401.327 197.313L401.331 197.314C401.446 197.329 401.553 197.344 401.653 197.356V201.266C401.15 201.189 399.756 201.034 398.401 201.034C391.084 201.034 387.91 206.338 387.91 213.848V238.006H383.767Z" fill="white"/>
<path fill-rule="evenodd" clip-rule="evenodd" d="M338.571 220.081C338.571 231.657 344.688 238.664 354.831 238.664C363.967 238.664 368.845 233.205 369.852 227.63H365.632C364.742 231.386 361.335 235.025 354.947 235.025C347.398 235.025 342.752 229.411 342.752 220.12V218.61H370.433V215.9C370.433 204.054 364.316 197.085 354.483 197.085C344.611 197.085 338.571 204.092 338.571 215.668V220.081ZM366.213 214.855V214.971H342.752V214.855C342.752 206.377 347.398 200.763 354.483 200.763C361.567 200.763 366.213 206.338 366.213 214.855Z" fill="white"/>
<path d="M311.609 238.006L297.053 197.743H301.466L313.7 232.702H313.894L326.514 197.743H330.811L316.062 238.006H311.609Z" fill="white"/>
<path fill-rule="evenodd" clip-rule="evenodd" d="M289.255 215.397C289.255 204.286 282.634 197.085 272.569 197.085C262.426 197.085 255.922 204.209 255.922 215.397V220.391C255.922 231.579 262.465 238.664 272.569 238.664C282.673 238.664 289.255 231.579 289.255 220.391V215.397ZM260.103 215.707C260.103 206.144 265.097 200.802 272.569 200.802C280.041 200.802 285.073 206.222 285.073 215.707V220.081C285.073 229.644 280.041 234.909 272.608 234.909C265.058 234.909 260.103 229.566 260.103 220.081V215.707Z" fill="white"/>
<path d="M229.231 238.006V197.743H233.374V204.286H233.528C234.729 200.879 237.709 197.124 244.368 197.124C245.4 197.124 246.19 197.231 246.783 197.312C246.902 197.328 247.013 197.343 247.117 197.356V201.266C246.614 201.189 245.22 201.034 243.865 201.034C236.548 201.034 233.374 206.338 233.374 213.848V238.006H229.231Z" fill="white"/>
<path fill-rule="evenodd" clip-rule="evenodd" d="M217.019 201.073C217.019 191.472 210.786 185.278 200.527 185.278H182.874V238.006H187.094V216.829H200.527C210.786 216.829 217.019 210.674 217.019 201.073ZM200.372 189.149C208.193 189.149 212.683 193.562 212.683 201.073C212.683 209.667 207.38 212.958 198.204 212.958H187.094V189.149H200.372Z" fill="white"/>
<defs>
<linearGradient id="paint0_linear_1278_34731" x1="219.891" y1="105.517" x2="153.467" y2="107.505" gradientUnits="userSpaceOnUse">
<stop stop-color="white"/>
<stop offset="1" stop-color="#28276E"/>
</linearGradient>
<linearGradient id="paint1_linear_1278_34731" x1="217.505" y1="90.4016" x2="167.389" y2="38.6944" gradientUnits="userSpaceOnUse">
<stop stop-color="white"/>
<stop offset="1" stop-color="#28276E"/>
</linearGradient>
<linearGradient id="paint2_linear_1278_34731" x1="159.037" y1="53.4136" x2="248.132" y2="52.618" gradientUnits="userSpaceOnUse">
<stop stop-color="#EC5631"/>
<stop offset="1" stop-color="#28276E"/>
</linearGradient>
<linearGradient id="paint3_linear_1278_34731" x1="245.746" y1="109.893" x2="194.835" y2="58.9812" gradientUnits="userSpaceOnUse">
<stop stop-color="#EC5631"/>
<stop offset="1" stop-color="#28276E"/>
</linearGradient>
</defs>
</svg>
